<svg xmlns="http://www.w3.org/2000/svg" fill="none" viewBox="0 0 24 24" width="1em" height="1em">
    <path fill="currentColor" fill-rule="evenodd" d="M8.009 4.549C8.003 4.699 8 4.849 8 5c0 6.075 4.925 11 11 11 .151 0 .302-.004.451-.01l1.962-.078-1.09 1.633A9.993 9.993 0 0 1 12 22C6.477 22 2 17.523 2 12a9.993 9.993 0 0 1 4.455-8.323l1.633-1.09-.08 1.962Zm-1.911 2.05A7.97 7.97 0 0 0 4 12a8 8 0 0 0 13.4 5.901C11.5 17.177 6.821 12.5 6.098 6.6Z" clip-rule="evenodd"></path>
    <path fill="currentColor" d="m17 4 1 2 2 1-2 1-1 2-1-2-2-1 2-1 1-2Z"></path>
</svg>
