<svg xmlns="http://www.w3.org/2000/svg" fill="none" viewBox="0 0 24 24" width="1em" height="1em">
	<path fill="currentColor" d="M13 22h-2v-3h2v3Z"></path>
	<path fill="currentColor" d="m6.343 16.242.707.708.708.707-2.122 2.121-1.414-1.414 2.12-2.122Z"></path>
	<path fill="currentColor" d="m17.657 16.242 2.121 2.122-1.414 1.414-2.122-2.12.708-.708.707-.708Z"></path>
	<path fill="currentColor" fill-rule="evenodd" d="M12 7a5 5 0 1 1 0 10 5 5 0 0 1 0-10Zm0 2a3 3 0 1 0 0 6 3 3 0 0 0 0-6Z" clip-rule="evenodd"></path>
	<path fill="currentColor" d="M5 13H2v-2h3v2Z"></path>
	<path fill="currentColor" d="M22 13h-3v-2h3v2Z"></path>
	<path fill="currentColor" d="m5.636 4.222 2.122 2.12-.708.708-.707.708-2.121-2.122 1.414-1.414Z"></path>
	<path fill="currentColor" d="m18.364 4.222 1.414 1.414-2.12 2.122-.708-.708-.708-.707 2.122-2.121Z"></path>
	<path fill="currentColor" d="M13 5h-2V2h2v3Z"></path>
</svg>