<?xml version="1.0" encoding="UTF-8"?>
<svg xmlns="http://www.w3.org/2000/svg" xmlns:xlink="http://www.w3.org/1999/xlink" width="512" height="512" viewBox="0 0 58 58" version="1.1"><!-- Generator: Sketch 51.3 (57544) - http://www.bohemiancoding.com/sketch --><title>001 - Accessibility</title><desc>Created with Sketch.</desc><defs/><g id="Page-1" stroke="none" stroke-width="1" fill="none" fill-rule="evenodd"><g id="001---Accessibility" fill-rule="nonzero"><circle id="Oval" fill="#894B9D" cx="29" cy="29" r="29"/><circle id="Oval" fill="#B49ACA" cx="29" cy="29" r="23"/><path d="M47.67,15.58 C30.4566108,16.7533766 16.7533766,30.4566108 15.58,47.67 C8.1792611,42.354451 4.6154382,33.1702862 6.49370056,24.2541139 C8.37196293,15.3379416 15.3379416,8.37196293 24.2541139,6.49370056 C33.1702862,4.6154382 42.354451,8.1792611 47.67,15.58 Z" id="Shape" fill="#C3AED5"/><path d="M29,1.77635684e-15 C12.9837423,-8.8817842e-16 -1.55431223e-15,12.9837423 -3.55271368e-15,29 C-5.55111512e-15,45.0162577 12.9837423,58 29,58 C45.0162577,58 58,45.0162577 58,29 C58.0012734,21.3083315 54.946334,13.9313281 49.5075029,8.49249706 C44.0686719,3.05366602 36.6916685,-0.00127341994 29,1.77635684e-15 Z M29,54 C15.1928813,54 4,42.8071187 4,29 C4,15.1928813 15.1928813,4 29,4 C42.8071187,4 54,15.1928813 54,29 C53.9878702,42.8020913 42.8020913,53.9878702 29,54 Z" id="Shape" fill="#955BA5"/><circle id="Oval" fill="#894B9D" cx="29" cy="14" r="5"/><path d="M43,22.0055 L32.498,22.948 C32.1116667,22.9826667 31.7243667,23 31.3361,23 L26.6639,23 C26.2759667,23 25.8886667,22.9826667 25.502,22.948 L15,22.0055 C14.2875588,21.9507312 13.6000172,22.2802055 13.1963654,22.8698133 C12.7927136,23.459421 12.734276,24.2195867 13.0430654,24.8639633 C13.3518548,25.5083399 13.9809588,25.9390312 14.6934,25.9938 L23.1807,26.7638 C24.2109342,26.8572639 24.9998861,27.720935 25,28.7554 L25,31.0535 C25.0000138,31.6789391 24.8826842,32.2988288 24.6541,32.881 L19.8251,45.1789 C19.5279974,45.8311697 19.6026519,46.5925562 20.0207894,47.1746961 C20.4389268,47.756836 21.1366105,48.0707152 21.8496035,47.9974569 C22.5625964,47.9241986 23.1818762,47.4750045 23.4729,46.82 L28.0922,35.6064 C28.2435367,35.2394034 28.6013248,34.9999566 28.9983,35 L29.0017,35 C29.3987483,35.0000067 29.756557,35.2395857 29.9078,35.6067 L34.5271,46.82 C34.9803601,47.8273122 36.1643878,48.2764601 37.1717,47.8232 C38.1790122,47.3699399 38.6281601,46.1859122 38.1749,45.1786 L33.3459,32.881 C33.1173158,32.2988288 32.9999862,31.6789391 33,31.0535 L33,28.7554 C33.0000104,27.7208583 33.7889895,26.8570708 34.8193,26.7636 L43.3066,25.9936 C44.0233103,25.9443505 44.6585468,25.5144889 44.9707529,24.8674754 C45.282959,24.2204619 45.2241656,23.4557072 44.8167297,22.8640188 C44.4092938,22.2723305 43.715816,21.9446187 43,22.0055 Z" id="Shape" fill="#894B9D"/></g></g></svg>
