<svg enable-background="new 0 0 100 100" height="512" viewBox="0 0 100 100" width="512" xmlns="http://www.w3.org/2000/svg"><g fill="#3a556a"><path d="m25.7362347 83.2154846c-.8118877 0-1.4705906-.6582184-1.4705906-1.4705887 0-5.1547165 4.1934776-9.3481979 9.3481979-9.3481979.8118896 0 1.4705925.658226 1.4705925 1.4705887 0 .8123703-.6587029 1.4705887-1.4705925 1.4705887-3.5328598 0-6.4070187 2.8741608-6.4070187 6.4070206 0 .8123702-.6587009 1.4705886-1.4705886 1.4705886z"/><path d="m74.2638397 83.2134933c-.8107376 0-1.4685059-.6572952-1.4685059-1.4685135 0-3.5340729-2.8748703-6.4089432-6.4094238-6.4089432-.8107376 0-1.4685135-.6572952-1.4685135-1.4685059 0-.8112183.6577759-1.4685135 1.4685135-1.4685135 5.1541138 0 9.3464355 4.1928024 9.3464355 9.3459625.0000001.8112184-.6577682 1.4685136-1.4685058 1.4685136z"/><path d="m21.8201408 64.504837c-.8107395 0-1.4685078-.6572914-1.4685078-1.4685097 0-5.1531601 4.1923218-9.3459625 9.3464394-9.3459625.8107376 0 1.4685078.6572914 1.4685078 1.4685097 0 .8112144-.6577702 1.4685059-1.4685078 1.4685059-3.5345535 0-6.4094238 2.8748741-6.4094238 6.408947 0 .8112182-.6577702 1.4685096-1.4685078 1.4685096z"/><path d="m78.179863 64.504837c-.8107452 0-1.4685135-.6572914-1.4685135-1.4685097 0-3.5340729-2.8748703-6.408947-6.4094238-6.408947-.8107376 0-1.4685059-.6572914-1.4685059-1.4685059 0-.8112183.6577682-1.4685097 1.4685059-1.4685097 5.1541214 0 9.3464432 4.1928024 9.3464432 9.3459625-.0000001.8112184-.6577683 1.4685098-1.4685059 1.4685098z"/><path d="m32.6350861 49.0754662c-5.1541157 0-9.3464375-4.1927986-9.3464375-9.3459625 0-.8112144.6577682-1.4685059 1.4685078-1.4685059.8107376 0 1.4685078.6572914 1.4685078 1.4685059 0 3.5340767 2.8748703 6.408947 6.4094219 6.408947.8107414 0 1.4685097.6572914 1.4685097 1.4685059-.0000001.8112181-.6577683 1.4685096-1.4685097 1.4685096z"/><path d="m67.3649139 49.0754662c-.8107376 0-1.4685059-.6572914-1.4685059-1.4685097 0-.8112144.6577682-1.4685059 1.4685059-1.4685059 3.5345535 0 6.4094238-2.8748703 6.4094238-6.408947 0-.8112144.6577682-1.4685059 1.4685059-1.4685059s1.4685059.6572914 1.4685059 1.4685059c0 5.1531639-4.1923218 9.3459626-9.3464356 9.3459626z"/></g><path d="m73.1568069 59.1015472c0 1.2400513-.0700073 2.4700317-.2000122 3.6799927-.2399902 2.3300171-.710022 4.5700073-1.4099731 6.6800537-1.6900024 5.3299561-4.6700439 9.8699951-8.4600258 13.0499878-1.7799683 1.5100098-3.7399902 2.7199707-5.8300171 3.5499878-2.2799683.9400024-4.7199707 1.4400024-7.2600098 1.4400024-2.5299683 0-4.9699707-.5-7.25-1.4400024-2.0999756-.8300171-4.0499878-2.039978-5.8399658-3.5499878-3.7800293-3.1799927-6.7600098-7.7200317-8.4500122-13.0499878-.7000122-2.1100464-1.1699829-4.3500366-1.4099731-6.6800537-.1300049-1.2099609-.2000122-2.4399414-.2000122-3.6799927 0-15.6900024 10.3699951-28.4099751 23.1499634-28.4099751 12.790039.0000001 23.1600379 12.7199727 23.1600379 28.4099751z" fill="#e56353"/><path d="m73.1540909 59.0974808c0 1.2433548-.0685959 2.4769135-.1958694 3.6810684-.244751 2.33004-.7147751 4.5719376-1.4098282 6.6866226-1.6936646 5.3257904-4.6698761 9.8683853-8.4584999 13.0501556-1.7818565 1.5076447-3.7398682 2.7117996-5.8349533 3.5439911-2.2810402.9398117-4.7187538 1.4391098-7.2544632 1.4391098v-56.8018951c12.7858657 0 23.153614 12.7173271 23.153614 28.4009476z" fill="#d15241"/><g fill="#3a556a"><path d="m49.4218063 16.03895c-8.5930557.3056107-15.2792053 5.670908-15.2792053 14.2693958l.0000038 4.6057129c0 2.787529 1.7699356 5.2531891 4.398571 6.1808815 6.4593506 2.2796211 16.8057785 2.2500381 23.1642838-.0887527 2.5245285-.9285736 4.1522827-3.3965111 4.1522827-6.0863953v-4.9916382c0-8.9499073-7.414444-14.2100525-16.435936-13.889204z"/><circle cx="38.884" cy="52.487" r="3.427"/><circle cx="61.116" cy="52.487" r="3.427"/><path d="m72.9582214 62.7785492c-.244751 2.33004-.7147751 4.5719376-1.4098282 6.6866226-1.6642609-.2349548-2.9272156-1.6545181-2.9272156-3.3873825 0-1.889473 1.5273056-3.4265137 3.4265137-3.4265137.3133469 0 .6168976.039196.9105301.1272736z"/><path d="m63.0898933 82.5153275c-1.7818565 1.5076447-3.7398682 2.7117996-5.8349533 3.5439911-.4014244-.5580368-.6363792-1.2433548-.6363792-1.9874039 0-1.889473 1.5273056-3.4265213 3.4265213-3.4265213 1.3315506 0 2.4867096.7636566 3.0448112 1.8699341z"/><path d="m31.3797817 66.0777893c0 1.7328644-1.2628365 3.1524277-2.9272156 3.3873825-.6950569-2.1146851-1.164959-4.3565826-1.4097099-6.6866226.2937489-.0880775.5971775-.1272736.9104061-.1272736 1.8993321 0 3.4265194 1.5370407 3.4265194 3.4265137z"/><path d="m43.3823929 84.0719147c0 .7440491-.234951 1.4293671-.6362572 1.9874039-2.0950851-.8321915-4.0530968-2.0363464-5.8348312-3.5439911.5579796-1.1062775 1.7132568-1.8699341 3.0445709-1.8699341 1.899334 0 3.4265175 1.5370483 3.4265175 3.4265213z"/><circle cx="57.108" cy="70.287" r="3.427"/><circle cx="42.893" cy="70.287" r="3.427"/><path d="m41.4464569 23.3172188c-.8118896 0-1.4705925-.6582241-1.4705925-1.4705906 0-3.5328598-2.874157-6.4070196-6.4070206-6.4070196-.8118858 0-1.4705887-.6582232-1.4705887-1.4705896s.6587029-1.4705887 1.4705887-1.4705887c5.1547241 0 9.3482018 4.1934776 9.3482018 9.3481979 0 .8123665-.6587029 1.4705906-1.4705887 1.4705906z"/><path d="m58.5545006 23.3172188c-.8118858 0-1.4705887-.6582241-1.4705887-1.4705906 0-5.1547203 4.1934776-9.3481979 9.3482018-9.3481979.8118896 0 1.4705887.6582222 1.4705887 1.4705887s-.658699 1.4705896-1.4705887 1.4705896c-3.5328636 0-6.4070206 2.8741598-6.4070206 6.4070196 0 .8123665-.6587029 1.4705906-1.4705925 1.4705906z"/></g></svg>