<svg enable-background="new 0 0 140 140" height="512" viewBox="0 0 140 140" width="512" xmlns="http://www.w3.org/2000/svg"><circle cx="70" cy="70" fill="#fed35b" r="64"/><path d="m47.2820244 102.4747849s0 0 .0100098.0100098l30.9916954 30.9742966c8.8544922-1.1500854 17.6098633-4.1630249 25.6738281-9.2106857 11.7674561-7.3660278 20.2974854-17.9373779 25.2021561-29.8674316l-39.7976151-39.9262087h-.0200195c-.0600586-.0700073-.1099854-.1500244-.1699219-.210022-.6600342-.6599731-1.5600586-1.0699463-2.5700684-1.0699463h-2.2600098l-20.3998985-20.460022c-1.5100098-1.6600361-3.6700439-2.7100239-6.0900879-2.7100239-4.5400391 0-8.2199707 3.6799946-8.2199707 8.2200336 0 2.0499878.7600098 3.9199829 2 5.3599854v.0100099l.0899658.0899658c.210083.2400513.4300537.460022.6700439.6700439l5.2900391 5.289978c-.960083 1.3499756-1.3500977 3.0999756-.9100342 4.8400269l2.789917 10.9199829-4.5699463-4.5700073-1.9100342.9799805c-.0400391.0200195-.0799561.0400391-.119873.0599976-7.8701172 4.3900146-13.2000732 12.7800293-13.2000732 22.4400024 0 7.0700073 2.8599854 13.4700317 7.4799805 18.1199951z" opacity=".1"/><g fill="#3a556a"><path d="m84.9506226 85.7330627c-.7288132 10.1391144-9.1753311 18.1436691-19.4998093 18.1436691-10.8119469 0-19.5655899-8.7621841-19.5655899-19.5654297 0-7.6213837 4.3670197-14.2078323 10.7299042-17.4363403.0181389-.0091782.0363808-.0181885.0545235-.0273132l-1.675621-6.0174294-1.9083824.9845657-.0021896-.0031281c-.0388832.0213699-.0777702.0427933-.1165504.064373-7.8739815 4.3850021-13.204895 12.7827911-13.204895 22.4352722-.0000002 14.185158 11.5035398 25.688698 25.6888006 25.688698 13.7077942 0 24.9012985-10.7430878 25.6391754-24.2669373z"/><path d="m105.7374954 90.4682007-10.5836334-13.3850784c-.74086-.9368134-1.8694305-1.4832687-3.0638199-1.4832687l-17.8073883-.0000534-6.1285248-23.782692c-.7979507-3.0967293-3.8787766-5.1832657-6.9986992-4.4813309-3.2288017.7263947-5.1976204 3.9682274-4.3836555 7.1508713l6.5522385 25.6196594c.4604836 1.8006897 2.0827789 3.0603409 3.941391 3.0603409h23.990242l9.3304977 11.5361252c1.2977448 1.6046295 3.778511 1.6893845 5.1756439.0145798 1.014061-1.2156449.957634-3.007393-.024292-4.2491532z"/><path d="m57.8476677 30c-4.5397606 0-8.2198906 3.6802025-8.2198906 8.2199593s3.68013 8.2199593 8.2198906 8.2199593 8.2200279-3.6801987 8.2200279-8.2199593-3.6802673-8.2199593-8.2200279-8.2199593z"/><path d="m86.6049728 53.1781311h-26.2335815v7.2752647h26.2335815c2.0092392 0 3.6378326-1.628643 3.6378326-3.6376038v-.0000534c.0000001-2.0089606-1.6285934-3.6376075-3.6378326-3.6376075z"/></g></svg>