<?xml version="1.0" encoding="UTF-8"?>
<svg xmlns="http://www.w3.org/2000/svg" xmlns:xlink="http://www.w3.org/1999/xlink" width="512" height="512" viewBox="0 0 58 58" version="1.1"><!-- Generator: Sketch 51.3 (57544) - http://www.bohemiancoding.com/sketch --><title>016 - Screen reader</title><desc>Created with Sketch.</desc><defs/><g id="Page-1" stroke="none" stroke-width="1" fill="none" fill-rule="evenodd"><g id="016---Screen-reader" transform="translate(0.000000, -1.000000)" fill-rule="nonzero"><path d="M58,5 L58,45 C58,47.209139 56.209139,49 54,49 L4,49 C1.790861,49 2.22044605e-16,47.209139 0,45 L0,5 C-2.22044605e-16,2.790861 1.790861,1 4,1 L54,1 C56.209139,1 58,2.790861 58,5 Z" id="Shape" fill="#90BAE1"/><path d="M58,5.0976 L58,9.38 C15.1339,16.7858 8.4628,38.0931 7.4917,43 L1,43 L1,5.0976 C1.0270566,3.9828963 1.49616695,2.92467929 2.30398031,2.15608709 C3.11179368,1.38749488 4.19202998,0.971589513 5.3067,1 L53.6933,1 C54.80797,0.971589513 55.8882063,1.38749488 56.6960197,2.15608709 C57.5038331,2.92467929 57.9729434,3.9828963 58,5.0976 Z" id="Shape" fill="#B0D3F0"/><rect id="Rectangle-path" fill="#3F5C6C" x="23" y="47" width="12" height="10"/><path d="M13,55 L45,55 C46.6568542,55 48,56.3431458 48,58 L48,59 L10,59 L10,58 C10,56.3431458 11.3431458,55 13,55 Z" id="Shape" fill="#41767F"/><path d="M58.0000002,42 L58,45 C58.0002919,46.0609554 57.5789583,47.0785407 56.8287495,47.8287495 C56.0785407,48.5789583 55.0609554,49.0002919 54,49 L4,49 C2.93904459,49.0002919 1.92145934,48.5789583 1.17125054,47.8287495 C0.421041746,47.0785407 -0.000291883157,46.0609554 -8.8817842e-16,45 L-1.5155263e-07,42 L58.0000002,42 Z" id="Shape" fill="#41767F"/><circle id="Oval" fill="#894B9D" cx="21" cy="23" r="11"/><path d="M21,21 C19.7866133,21 18.6927044,20.2690735 18.2283614,19.1480503 C17.7640184,18.0270271 18.0206857,16.7366736 18.8786797,15.8786797 C19.7366736,15.0206857 21.0270271,14.7640184 22.1480503,15.2283614 C23.2690735,15.6927044 24,16.7866133 24,18 C23.9981813,19.6561003 22.6561003,20.9981813 21,21 Z M21,17 C20.4477153,17 20,17.4477153 20,18 C20,18.5522847 20.4477153,19 21,19 C21.5522847,19 22,18.5522847 22,18 C21.9995038,17.4479209 21.5520791,17.0004962 21,17 Z" id="Shape" fill="#B49ACA"/><path d="M17.999,31 C17.6525625,30.9996938 17.3309637,30.820101 17.1489753,30.5253143 C16.9669868,30.2305275 16.9505383,29.8625482 17.1055,29.5527 L20,23.7642 L20,20 C20,19.4477153 20.4477153,19 21,19 C21.5522847,19 22,19.4477153 22,20 L22,24 C22.000036,24.1552685 21.9639156,24.3084123 21.8945,24.4473 L18.8945,30.4473 C18.7249112,30.7863964 18.3781392,31.000423 17.999,31 Z" id="Shape" fill="#B49ACA"/><path d="M24.001,31 C23.6218608,31.000423 23.2750888,30.7863964 23.1055,30.4473 L20.1055,24.4473 C19.9456951,24.1277259 19.96852,23.7471724 20.1653768,23.4489903 C20.3622337,23.1508081 20.7032151,22.9802983 21.0598768,23.0016903 C21.4165385,23.0230822 21.7346951,23.2331259 21.8945,23.5527 L24.8945,29.5527 C25.0494617,29.8625482 25.0330132,30.2305275 24.8510247,30.5253143 C24.6690363,30.820101 24.3474375,30.9996938 24.001,31 Z" id="Shape" fill="#B49ACA"/><path d="M21,23 C20.9450102,23.0001008 20.8901118,22.9955175 20.8359,22.9863 L14.8359,21.9863 C14.4785721,21.9330146 14.1777689,21.6911356 14.0490326,21.3535715 C13.9202962,21.0160074 13.9836461,20.6352518 14.2147488,20.3575575 C14.4458515,20.0798632 14.8087688,19.9484136 15.1641,20.0137 L21,20.9863 L26.8359,20.0137 C27.1912312,19.9484136 27.5541485,20.0798632 27.7852512,20.3575575 C28.0163539,20.6352518 28.0797038,21.0160074 27.9509674,21.3535715 C27.8222311,21.6911356 27.5214279,21.9330146 27.1641,21.9863 L21.1641,22.9863 C21.1098882,22.9955175 21.0549898,23.0001008 21,23 Z" id="Shape" fill="#B49ACA"/><path d="M43.3213,34.6274 C42.9169041,34.6273137 42.5523659,34.3836725 42.397622,34.0100546 C42.2428781,33.6364366 42.3283921,33.2063943 42.6143,32.9204 C48.4629244,27.0586346 48.4629244,17.5687654 42.6143,11.707 C42.2353278,11.3146211 42.2407476,10.6909152 42.6264814,10.3051814 C43.0122152,9.91944763 43.6359211,9.91402779 44.0283,10.293 C50.6572579,16.9359824 50.6572579,27.6915176 44.0283,34.3345 C43.8409971,34.522321 43.5865527,34.6277337 43.3213,34.6274 Z" id="Shape" fill="#FF5364"/><path d="M40.4932,31.7988 C40.0887859,31.7987541 39.7242107,31.5551278 39.5694412,31.1815007 C39.4146716,30.8078737 39.5001792,30.3778071 39.7861,30.0918 C44.0752079,25.7933348 44.0752079,18.8340652 39.7861,14.5356 C39.4083909,14.1430451 39.4143798,13.5203858 39.7995697,13.1351687 C40.1847596,12.7499516 40.8074184,12.7439186 41.2,13.1216 C46.268396,18.2017146 46.268396,26.4257854 41.2,31.5059 C41.012746,31.6936719 40.7583834,31.7990805 40.4932,31.7988 Z" id="Shape" fill="#FF5364"/><path d="M37.6641,28.9707 C37.2596859,28.9706541 36.8951107,28.7270278 36.7403412,28.3534007 C36.5855716,27.9797737 36.6710792,27.5497071 36.957,27.2637 C39.6865413,24.5281239 39.6865413,20.0992761 36.957,17.3637 C36.5805199,16.9709093 36.587154,16.3492019 36.9719303,15.9645345 C37.3567066,15.579867 37.9784158,15.5734088 38.3711,15.95 C41.879918,19.4671911 41.879918,25.1608089 38.3711,28.678 C38.1837517,28.8657289 37.9293196,28.9710646 37.6641,28.9707 Z" id="Shape" fill="#FF5364"/></g></g></svg>
