<?xml version="1.0" encoding="utf-8"?>
<svg viewBox="0 0 128 128" xmlns="http://www.w3.org/2000/svg">
  <rect width="128" height="128" style="fill: rgb(50, 51, 48);"/>
  <path fill="#F0DB4F" d="M 0 0 L 0 128 L 128 128 L 128 0 L 0 0 Z M 67.706 109.069 C 65.817 112.908 62.21 115.43 58.031 116.648 C 51.61 118.122 45.468 117.282 40.899 114.54 C 37.841 112.664 35.453 109.776 33.832 106.449 L 43.58 100.479 C 43.665 100.515 43.921 100.978 44.263 101.576 C 45.507 103.659 46.579 105.133 48.686 106.168 C 50.757 106.875 55.302 107.326 57.057 103.683 C 58.129 101.83 57.788 95.872 57.788 89.281 C 57.787 78.923 57.836 68.608 57.836 58.368 L 69.826 58.368 C 69.826 69.632 69.887 80.3 69.826 91.292 C 69.851 98.03 70.436 104.036 67.706 109.069 Z M 117.446 105.682 C 113.278 119.938 90.041 120.401 80.756 110.982 C 78.794 108.765 77.564 107.607 76.393 105.048 C 81.328 102.21 81.328 102.21 86.13 99.431 C 88.738 103.44 91.149 105.645 95.488 106.547 C 101.374 107.266 107.296 105.244 105.968 98.992 C 104.603 93.886 93.915 92.644 86.642 87.184 C 79.258 82.225 77.527 70.175 83.595 63.289 C 85.618 60.743 89.066 58.842 92.685 57.929 L 96.462 57.44 C 103.713 57.294 108.245 59.209 111.572 62.924 C 112.498 63.862 113.253 64.873 114.666 67.066 C 110.804 69.528 110.816 69.504 105.284 73.086 C 104.102 70.54 102.141 68.943 100.068 68.249 C 96.851 67.274 92.794 68.334 91.952 71.733 C 91.66 72.781 91.721 73.756 92.185 75.486 C 93.488 78.459 97.863 79.751 101.787 81.554 C 113.082 86.136 116.897 91.048 117.835 96.895 C 118.738 101.929 117.617 105.194 117.446 105.682 Z"/>
</svg>