<?xml version="1.0" ?><svg height="256px" style="enable-background:new 0 0 256 256;" version="1.1" viewBox="0 0 256 256" width="256px" xml:space="preserve" xmlns="http://www.w3.org/2000/svg" xmlns:xlink="http://www.w3.org/1999/xlink"><style type="text/css">
	.st0{fill:#938991;}
	.st1{fill:#7996B1;}
	.st2{fill:#8BBDB1;}
	.st3{fill:#D66D5D;}
	.st4{fill:#F2B462;}
	.st5{fill:none;stroke:#ED1C24;stroke-width:10;stroke-linecap:round;stroke-miterlimit:10;stroke-dasharray:60,25,0,0,0,0;}
	.st6{opacity:0.2;fill:#231F20;}
	.st7{opacity:0.2;}
	.st8{fill:#231F20;}
	.st9{fill:#FFFFFF;}
	.st10{fill:#FAFAF8;}
</style><g id="background"><circle class="st4" cx="128" cy="128" r="120.335"/></g><g id="shaddow"><g class="st7"><path class="st8" d="M217.457,133.396c2.026,4.218-43.716,56.883-46.256,52.742c-2.54-4.141-2.149-104.116-0.798-106.36    s18.491-3.56,20.585,0s-0.72,47.489,1.5,49.712C194.707,131.714,215.431,129.179,217.457,133.396z"/><path class="st8" d="M147.995,101.863c-1.421,1.106-88.132,1.5-90.027,0c-1.895-1.5-1.895-20.533,0-22.744    c1.895-2.211,88.132-1.579,90.027,0C149.891,80.699,149.417,100.758,147.995,101.863z"/><path class="st8" d="M147.995,143.56c-1.816,1.343-87.737,1.343-90.027,0c-2.29-1.342-1.658-20.927,0-22.744    c1.658-1.816,87.593-1.433,90.027,0C150.429,122.249,149.812,142.217,147.995,143.56z"/><path class="st8" d="M147.995,185.257c-1.5,1.5-87.684,1.31-90.027,0c-2.343-1.31-1.5-21.322,0-22.744    c1.5-1.421,87.974-1.421,90.027,0C150.049,163.934,149.496,183.756,147.995,185.257z"/></g></g><g id="device"/><g id="menu"><g><path class="st9" d="M213.457,129.396c2.026,4.218-43.716,56.883-46.256,52.742c-2.54-4.141-2.149-104.116-0.798-106.36    s18.491-3.56,20.585,0s-0.72,47.489,1.5,49.712C190.707,127.714,211.431,125.179,213.457,129.396z"/><path class="st9" d="M143.995,97.863c-1.421,1.106-88.132,1.5-90.027,0c-1.895-1.5-1.895-20.533,0-22.744    c1.895-2.211,88.132-1.579,90.027,0C145.891,76.699,145.417,96.758,143.995,97.863z"/><path class="st9" d="M143.995,139.56c-1.816,1.343-87.737,1.343-90.027,0c-2.29-1.342-1.658-20.927,0-22.744    c1.658-1.816,87.593-1.433,90.027,0C146.429,118.249,145.812,138.217,143.995,139.56z"/><path class="st9" d="M143.995,181.257c-1.5,1.5-87.684,1.31-90.027,0c-2.343-1.31-1.5-21.322,0-22.744    c1.5-1.421,87.974-1.421,90.027,0C146.049,159.934,145.496,179.756,143.995,181.257z"/></g></g><g id="media"/></svg>